<svg width="158" height="158" viewBox="0 0 158 158" fill="none" xmlns="http://www.w3.org/2000/svg">
<g clip-path="url(#clip0_81_3853)">
<path d="M19.75 79C19.75 86.7808 21.2825 94.4855 24.2601 101.674C27.2377 108.863 31.6021 115.394 37.1039 120.896C42.6058 126.398 49.1375 130.762 56.326 133.74C63.5145 136.717 71.2192 138.25 79 138.25C86.7808 138.25 94.4855 136.717 101.674 133.74C108.863 130.762 115.394 126.398 120.896 120.896C126.398 115.394 130.762 108.863 133.74 101.674C136.717 94.4855 138.25 86.7808 138.25 79C138.25 71.2192 136.717 63.5145 133.74 56.326C130.762 49.1375 126.398 42.6058 120.896 37.1039C115.394 31.6021 108.863 27.2377 101.674 24.2601C94.4855 21.2825 86.7808 19.75 79 19.75C71.2192 19.75 63.5145 21.2825 56.326 24.2601C49.1375 27.2377 42.6058 31.6021 37.1039 37.1039C31.6021 42.6058 27.2377 49.1375 24.2601 56.326C21.2825 63.5145 19.75 71.2192 19.75 79Z" fill="#EA5555" stroke="#EEEEEE" stroke-width="10" stroke-linecap="round" stroke-linejoin="round"/>
<path d="M79 59.25V85.5833" stroke="#EEEEEE" stroke-width="10" stroke-linecap="round" stroke-linejoin="round"/>
<path d="M79 105.333V105.399" stroke="#EEEEEE" stroke-width="10" stroke-linecap="round" stroke-linejoin="round"/>
</g>
<defs>
<clipPath id="clip0_81_3853">
<rect width="158" height="158" fill="white"/>
</clipPath>
</defs>
</svg>
