<svg width="154" height="147" viewBox="0 0 154 147" fill="none" xmlns="http://www.w3.org/2000/svg">
<g clip-path="url(#clip0_8_84)">
<path d="M8.95172 83.979C7.50789 83.979 6.20846 83.8343 5.0534 83.4731C3.97053 83.1117 3.03203 82.6058 2.31013 82.0276C1.58821 81.3771 1.01068 80.6544 0.649717 79.7871C0.288761 78.9198 0.0721914 77.9805 0 76.8963H2.67108C2.74328 77.6913 2.95984 78.4139 3.3208 78.9923C3.68176 79.5704 4.11492 80.0763 4.69243 80.4377C5.26997 80.7989 5.84751 81.0881 6.56941 81.3048C7.29133 81.5217 8.01325 81.594 8.80735 81.594C9.60145 81.594 10.3234 81.5217 10.9009 81.3048C11.5506 81.1603 12.0559 80.8712 12.5613 80.5822C12.9944 80.293 13.3554 79.9318 13.6442 79.4257C13.9329 78.9923 14.0051 78.4864 14.0051 77.9081C14.0051 77.3299 13.8607 76.824 13.6442 76.4628C13.4276 76.0291 13.0666 75.74 12.4891 75.4508C11.9838 75.1618 11.2619 74.8727 10.4677 74.6559C9.67364 74.439 8.59076 74.1501 7.43571 73.9331C6.28064 73.6442 5.26997 73.355 4.40367 72.9936C3.53738 72.6324 2.81546 72.271 2.31013 71.7651C1.73259 71.3314 1.37164 70.7533 1.08287 70.1751C0.794105 69.597 0.721914 68.8742 0.721914 68.0791C0.721914 67.212 0.938485 66.4892 1.29944 65.7666C1.6604 65.0438 2.16574 64.4656 2.81546 63.9597C3.46518 63.4538 4.25928 63.0202 5.19777 62.7312C6.13626 62.442 7.14694 62.2975 8.22981 62.2975C9.38487 62.2975 10.4677 62.442 11.4062 62.7312C12.3447 63.0202 13.211 63.4538 13.9329 63.9597C14.6548 64.5379 15.1602 65.1884 15.5933 65.9111C16.0265 66.7061 16.1709 67.5732 16.2431 68.5852H13.572C13.2832 66.0555 11.5506 64.7548 8.3742 64.7548C6.78599 64.7548 5.63092 65.0438 4.76463 65.6221C3.89833 66.2002 3.53738 66.9951 3.53738 67.9346C3.53738 68.3683 3.60956 68.7297 3.75395 69.0911C3.89833 69.3801 4.1871 69.6692 4.54805 69.886C4.909 70.1029 5.41435 70.3196 5.99187 70.5365C6.64161 70.7533 7.36351 70.8978 8.30201 71.1147C9.2405 71.3314 10.1068 71.5483 10.8287 71.6928C11.5506 71.9096 12.2003 72.1265 12.7779 72.271C13.2832 72.4877 13.7886 72.7046 14.2939 72.9936C14.7992 73.2827 15.2324 73.6442 15.5933 74.0778C15.9543 74.5115 16.2431 75.0173 16.4596 75.5955C16.6762 76.1736 16.8206 76.824 16.8206 77.4746C16.8206 78.4139 16.604 79.2812 16.2431 80.0041C15.8821 80.7989 15.3046 81.4495 14.6548 82.0276C14.0051 82.6058 13.1388 83.0394 12.2003 83.3284C11.1175 83.8343 10.1068 83.979 8.95172 83.979Z" fill="#121212"/>
<path d="M30.2472 83.6177H27.504V62.6589H30.2472V83.6177Z" fill="#121212"/>
<path d="M57.4637 77.4746C57.4637 79.4259 56.8138 80.9436 55.5145 82.0278C54.215 83.0396 52.2658 83.6177 49.667 83.6177H41.7981V62.6589H49.2338C50.3166 62.6589 51.3273 62.8036 52.1936 63.0203C53.06 63.2373 53.854 63.5985 54.4316 64.1044C55.0813 64.538 55.5145 65.1162 55.8755 65.7667C56.2363 66.4171 56.3808 67.2122 56.3808 68.0071C56.3808 70.0306 55.3702 71.4761 53.3486 72.4879C53.9985 72.6325 54.6481 72.9215 55.1535 73.2107C55.6588 73.5721 56.092 73.9333 56.453 74.367C56.8138 74.8006 57.0305 75.3065 57.247 75.8124C57.3915 76.3183 57.4637 76.8964 57.4637 77.4746ZM44.5414 71.4038H49.1616C50.6776 71.4038 51.8326 71.1871 52.5546 70.6812C53.2765 70.1753 53.6375 69.3802 53.6375 68.224C53.6375 67.7181 53.5653 67.2122 53.421 66.8508C53.2765 66.4894 52.9878 66.128 52.6268 65.9112C52.2658 65.6945 51.7605 65.4776 51.183 65.3331C50.6055 65.1884 49.8113 65.1162 48.9451 65.1162H44.5414V71.4038ZM44.5414 81.0883H49.5948C52.9156 81.0883 54.576 79.8595 54.576 77.4746C54.576 76.8242 54.5038 76.3183 54.2871 75.8846C54.1428 75.451 53.7818 75.0898 53.421 74.7284C52.9878 74.4392 52.4825 74.2225 51.7605 74.078C51.1108 73.9333 50.2445 73.8611 49.2338 73.8611H44.5414V81.0883Z" fill="#121212"/>
<path d="M83.5268 83.6177H67.8612V62.6589H83.0214V65.1162H70.6044V71.4761H82.2273V74.0055H70.6044V81.0883H83.4544V83.6177H83.5268Z" fill="#121212"/>
<path d="M111.464 83.6178H108.432L106.483 77.9807C106.267 77.4748 106.05 77.0411 105.761 76.6075C105.473 76.1738 105.112 75.8126 104.751 75.5234C104.317 75.2343 103.884 75.0175 103.451 74.8008C102.946 74.6561 102.44 74.5116 101.935 74.5116H96.8096V83.4733H93.9941V62.5146H103.235C103.812 62.5146 104.317 62.5146 104.823 62.5146C105.328 62.5146 105.833 62.5869 106.267 62.6591C106.7 62.7314 107.133 62.8759 107.566 63.0928C107.999 63.3095 108.36 63.5264 108.721 63.8154C109.371 64.3937 109.804 65.0441 110.165 65.839C110.454 66.6341 110.67 67.4291 110.67 68.2962C110.67 69.019 110.526 69.6694 110.309 70.32C110.093 70.9704 109.804 71.4763 109.371 71.9822C108.938 72.4881 108.505 72.8495 107.855 73.2107C107.277 73.4999 106.628 73.789 105.906 73.9335C107.349 74.3671 108.505 75.6679 109.299 77.7639L111.464 83.6178ZM96.7374 72.1267H102.946C104.678 72.1267 105.906 71.8377 106.7 71.3318C107.494 70.8259 107.855 69.8141 107.855 68.5131C107.855 66.1282 106.339 64.9719 103.379 64.9719H96.7374V72.1267Z" fill="#121212"/>
<path d="M124.818 83.6177H122.075V62.6589H124.818V83.6177Z" fill="#121212"/>
<path d="M153.551 83.6177H150.447L147.993 77.2578H139.185L136.875 83.6177H133.988L142.001 62.6589H145.033L153.551 83.6177ZM147.199 75.0173L143.517 65.3331L139.979 75.0173H147.199Z" fill="#121212"/>
<path d="M134.71 41.9174C133.483 41.0501 132.905 40.9056 135.288 39.0265C137.67 37.2197 138.897 34.1843 136.515 33.8231C134.133 33.4617 133.7 34.2566 132.905 34.7625C132.039 35.2683 130.307 36.4248 130.09 34.1843C129.946 32.0162 129.079 29.1254 126.336 29.2699C123.593 29.4145 123.809 30.5708 125.181 32.4499C126.553 34.329 126.625 36.6415 126.12 37.798C125.614 39.0265 123.16 41.4838 123.521 38.087C123.882 34.6902 123.737 32.3776 122.654 31.7271C121.499 31.0767 120.994 31.944 120.994 34.6902C120.994 37.4366 120.2 38.9543 119.045 41.1224C117.89 43.2906 116.085 45.3142 114.497 45.025C112.981 44.736 110.743 44.0855 110.815 41.4115C110.887 38.8098 112.692 37.3644 113.919 36.7138C115.146 36.1356 117.096 34.5457 117.457 33.6784C117.818 32.8113 116.807 32.8835 116.085 33.1725C115.363 33.4617 114.136 33.8231 114.858 32.4499C115.58 31.0767 117.312 29.6313 116.662 28.4027C115.941 27.174 114.352 27.3909 113.703 28.3303C113.125 29.2699 112.62 30.7153 112.042 31.1489C111.465 31.5826 111.032 31.8718 111.032 30.2816C110.959 28.764 110.815 28.6195 110.454 28.2581C110.093 27.8244 108.577 27.6799 108.505 29.4868C108.433 31.2934 108.793 33.3894 108.288 35.6298C107.783 37.8702 107.061 40.6165 104.39 40.3275C101.719 40.0383 100.347 38.7375 100.492 37.1474C100.708 35.5575 102.296 34.8349 103.884 34.4012C105.545 33.9676 106.844 32.7389 105.256 32.0885C103.74 31.4381 102.441 31.3659 102.729 30.4986C103.018 29.6313 105.545 28.1858 105.545 26.8849C105.473 25.5841 104.823 25.2949 104.967 23.9217C105.184 22.5487 105.328 22.4041 104.462 21.6092C103.596 20.8141 102.729 21.5369 102.08 22.2596C101.43 22.9824 100.492 22.9824 99.914 23.6328C99.3365 24.2831 98.9033 24.8613 98.5425 26.1622C98.2536 27.5354 98.6146 28.764 97.3873 27.9691C96.1601 27.2463 95.1495 25.1504 94.4274 25.5841C93.7056 26.0177 92.2618 26.5236 93.8499 28.8362C95.5103 31.1489 95.6548 31.2934 94.7163 32.3776C93.8499 33.3894 91.6121 33.7507 90.2404 32.9558C88.8688 32.1607 87.1361 30.4986 87.8581 29.0531C88.5799 27.5354 91.6843 24.7168 93.6334 23.7773C95.5826 22.8377 96.2323 22.1151 96.7376 21.1033C97.3151 20.0915 96.1601 19.2964 95.2938 19.9468C94.4274 20.5974 92.2618 21.7537 92.8393 20.0192C93.4168 18.3569 94.0666 16.4056 93.8499 15.4661C93.6334 14.5988 92.1896 14.2375 91.2511 15.6829C90.2404 17.1283 89.4463 19.1519 88.8688 16.9115C88.2913 14.5988 87.2084 16.6947 86.8474 17.7788C86.4864 18.7905 86.9196 20.1637 86.9196 21.3923C86.9918 22.621 86.2699 25.7286 84.4651 26.379C82.6602 27.1018 82.0106 27.4632 80.1336 25.5119C78.3289 23.5605 79.0507 21.1033 80.1336 19.2242C81.2164 17.4174 82.9491 15.4661 84.5372 14.6711C86.0532 13.8038 87.3528 13.587 87.3528 12.6475C87.4249 11.7802 86.4864 10.5516 85.1869 10.9853C83.9597 11.4189 81.8662 12.5752 80.9277 13.8761C79.9892 15.177 77.679 16.767 79.0507 13.1534C80.4224 9.53982 82.1549 9.39529 83.3822 9.25075C84.6094 9.17847 87.8581 9.8289 87.4249 7.94985C87.0639 6.14308 86.1254 5.70944 84.6816 5.05901C83.2379 4.40855 83.3101 4.55309 81.6496 5.49262C79.9892 6.35988 78.9064 7.37167 78.8342 4.76992C78.7619 2.16814 78.2565 0.650443 77.6069 0.289086C77.0294 1.09524e-06 76.524 0 76.3074 0C76.0909 0 75.5855 1.09524e-06 75.0802 0.289086C74.3582 0.650443 73.8529 2.16814 73.8529 4.76992C73.7807 7.37167 72.6979 6.35988 71.0375 5.49262C69.377 4.62537 69.4494 4.48083 68.0055 5.05901C66.5617 5.70944 65.6953 6.0708 65.2622 7.94985C64.829 9.75664 68.0777 9.17847 69.3049 9.25075C70.5322 9.32301 72.2647 9.53982 73.6364 13.1534C75.008 16.767 72.6979 15.177 71.7594 13.8761C70.8209 12.5752 68.7273 11.4189 67.5002 10.9853C66.2728 10.5516 65.3343 11.708 65.3343 12.6475C65.4065 13.5148 66.6338 13.8038 68.1498 14.6711C69.6659 15.5383 71.3984 17.4174 72.5535 19.2242C73.6364 21.031 74.3582 23.5605 72.5535 25.5119C70.7487 27.4632 70.0269 27.0295 68.222 26.379C66.4172 25.6563 65.7675 22.621 65.7675 21.3923C65.8397 20.1637 66.2007 18.7905 65.8397 17.7788C65.4787 16.767 64.3237 14.6711 63.8183 16.9115C63.2408 19.2242 62.4467 17.1283 61.436 15.6829C60.4253 14.2375 59.0536 14.5266 58.8371 15.4661C58.6207 16.3333 59.2703 18.2846 59.8478 20.0192C60.4253 21.6814 58.3318 20.5974 57.3933 19.9468C56.527 19.2964 55.372 20.0915 55.9495 21.1033C56.527 22.1151 57.1768 22.8377 59.0536 23.7773C61.0028 24.7168 64.035 27.5354 64.829 29.0531C65.551 30.5708 63.8183 32.1607 62.4467 32.9558C61.0752 33.7507 58.8371 33.4617 57.9708 32.3776C57.1046 31.3659 57.249 31.1489 58.8371 28.8362C60.4975 26.5236 59.0536 26.0177 58.2596 25.5841C57.5376 25.1504 56.4548 27.2463 55.2998 27.9691C54.0725 28.6917 54.4335 27.4632 54.1448 26.1622C53.856 24.789 53.3506 24.2831 52.7731 23.6328C52.1956 22.9824 51.2571 22.9824 50.6073 22.2596C49.9576 21.5369 49.0913 20.8141 48.2249 21.6092C47.3588 22.4041 47.5031 22.4765 47.7196 23.9217C47.9363 25.2949 47.2143 25.5841 47.1421 26.8849C47.0699 28.1858 49.5966 29.6313 49.9576 30.4986C50.2465 31.3659 48.9469 31.4381 47.4309 32.0885C45.9149 32.7389 47.2143 34.0398 48.8026 34.4012C50.4629 34.8349 52.0511 35.5575 52.1956 37.1474C52.4121 38.7375 50.9683 40.0383 48.2973 40.3275C45.6261 40.6165 44.9043 37.8702 44.3989 35.6298C43.8936 33.3894 44.2544 31.2212 44.1823 29.4868C44.1101 27.6799 42.5941 27.8244 42.2331 28.2581C41.8723 28.6917 41.6556 28.764 41.6556 30.2816C41.5834 31.7993 41.2224 31.5103 40.6449 31.1489C40.0674 30.7153 39.5621 29.3421 38.9846 28.3303C38.4071 27.3909 36.7466 27.1018 36.0247 28.4027C35.3027 29.6313 37.0354 31.1489 37.8294 32.4499C38.5514 33.8231 37.3241 33.4617 36.6022 33.1725C35.8802 32.8835 34.9417 32.8113 35.2306 33.6784C35.5916 34.5457 37.5407 36.1356 38.7679 36.7138C39.9952 37.2921 41.8723 38.7375 41.8723 41.4115C41.9444 44.0132 39.7064 44.6638 38.1904 45.025C36.6744 45.3142 34.7974 43.2906 33.6424 41.1224C32.4874 38.9543 31.6932 37.4366 31.6932 34.6902C31.6932 31.944 31.1879 31.0767 30.0329 31.7271C28.8777 32.3776 28.7334 34.6902 29.1665 38.087C29.5997 41.4838 27.073 38.9543 26.5677 37.798C26.0622 36.6415 26.1345 34.329 27.506 32.4499C28.8777 30.5708 29.0944 29.4145 26.351 29.2699C23.6079 29.1254 22.7415 32.0162 22.597 34.1843C22.4527 36.3526 20.6478 35.1961 19.7817 34.7625C18.9153 34.2566 18.5543 33.4617 16.1721 33.8231C13.7897 34.1843 15.017 37.1474 17.3993 39.0265C19.7817 40.8334 19.2042 41.0501 17.9768 41.9174C16.7496 42.7847 15.0892 43.5073 15.4501 46.7596C15.8111 50.0117 17.9046 48.5663 19.1318 46.1815C20.3592 43.7243 23.68 43.7243 25.0515 43.7965C26.4232 43.8687 26.6399 45.1697 25.9179 45.6756C25.196 46.1815 23.8244 45.9646 21.8752 47.1933C19.926 48.4218 19.4207 49.5058 19.565 50.4454C19.7095 51.3849 20.4313 51.2404 21.5863 50.3731C22.7415 49.5058 22.958 49.3613 27.3617 47.9882C31.7654 46.615 34.3642 50.8068 34.3642 50.8068H75.9465H117.312C117.312 50.8068 120.128 46.615 124.531 47.9882C128.935 49.3613 129.224 49.5058 130.307 50.3731C131.462 51.2404 132.184 51.3849 132.328 50.4454C132.472 49.5058 131.895 48.4218 130.018 47.1933C128.069 45.9646 126.769 46.1815 125.975 45.6756C125.253 45.1697 125.398 43.8687 126.841 43.7965C128.213 43.7243 131.534 43.7243 132.761 46.1815C133.988 48.6387 136.082 50.0117 136.443 46.7596C137.598 43.5073 136.01 42.7125 134.71 41.9174ZM65.1178 40.6887C63.1687 39.171 61.6527 39.0265 61.0752 39.6769C60.4975 40.3275 61.5081 41.3393 62.0858 42.4956C62.7355 43.7243 63.0243 44.736 63.1687 45.8923C63.313 47.0486 62.3023 48.3496 60.642 45.4587C58.9815 42.64 58.6207 41.0501 57.3933 41.8452C56.1661 42.64 56.0216 43.6518 56.1661 44.4469C56.3105 45.2419 57.1768 48.9999 54.7945 45.9646C52.4121 42.9292 54.0003 41.8452 54.4335 40.8334C54.8666 39.7493 55.733 38.1592 55.9495 37.5088C56.1661 36.7138 56.0938 35.3408 57.1045 35.5575C58.1153 35.7744 59.3425 36.3526 59.3425 36.3526C59.3425 36.3526 61.9413 36.9307 62.952 37.0029C63.9627 37.0752 65.551 36.9307 66.2007 38.6651C66.8503 40.3275 67.067 42.2066 65.1178 40.6887ZM75.2245 32.8113C75.7299 31.5826 76.3074 31.2934 76.8127 31.2212C77.2459 31.2934 77.8236 31.5826 78.3289 32.8113C79.1951 34.9794 78.9064 37.2921 78.3289 38.7375C77.8236 40.1106 77.6791 40.3997 76.8127 40.6165C75.9465 40.472 75.802 40.1106 75.2967 38.7375C74.7192 37.2921 74.3582 34.9794 75.2245 32.8113ZM82.0106 47.121C80.7834 46.0368 80.0614 44.5191 78.9786 45.6032C77.8957 46.6874 78.4011 47.7714 77.0294 47.7714C76.9572 47.7714 76.8851 47.7714 76.7405 47.7714C76.6684 47.7714 76.5962 47.7714 76.524 47.7714C75.1524 47.6992 75.6577 46.6874 74.5749 45.6032C73.492 44.5191 72.77 46.0368 71.5429 47.121C70.3155 48.2051 69.8823 46.3982 71.3262 44.0855C72.77 41.7729 74.4305 43.1459 75.2245 43.941C75.6577 44.3746 76.2352 44.5191 76.6684 44.5914C77.1015 44.5191 77.6791 44.3746 78.1122 43.941C78.9786 43.1459 80.5667 41.7729 82.0106 44.0855C83.5987 46.3982 83.1656 48.2051 82.0106 47.121ZM98.759 45.9646C96.3766 48.9999 97.243 45.2419 97.3873 44.4469C97.5318 43.6518 97.4594 42.64 96.1601 41.8452C94.9328 41.0501 94.4996 42.5678 92.9114 45.4587C91.2511 48.2773 90.2404 46.9764 90.3848 45.8923C90.5291 44.736 90.8179 43.7243 91.4676 42.4956C92.1174 41.267 93.0558 40.3275 92.4783 39.6769C91.9008 39.0265 90.3848 39.171 88.4356 40.6887C86.4864 42.2066 86.7031 40.3275 87.3528 38.6651C88.0024 37.0029 89.5906 37.0752 90.6013 37.0029C91.6121 36.9307 94.211 36.3526 94.211 36.3526C94.211 36.3526 95.4381 35.7744 96.4488 35.5575C97.4594 35.3408 97.3873 36.7138 97.604 37.5088C97.8205 38.2317 98.6868 39.8216 99.12 40.8334C99.4808 41.8452 101.141 42.9292 98.759 45.9646Z" fill="#121212"/>
<path d="M137.238 100.241C136.877 96.9887 134.783 98.4341 133.556 100.819C132.329 103.276 129.008 103.276 127.637 103.204C126.265 103.132 126.048 101.831 126.77 101.325C127.492 100.819 128.864 101.036 130.813 99.8073C132.762 98.5786 133.267 97.4945 133.123 96.555C132.979 95.6155 132.257 95.76 131.102 96.6273C129.947 97.4946 129.73 97.639 125.326 99.0122C120.923 100.385 118.179 96.4105 118.179 96.4105H76.7416H34.8706C34.8706 96.4105 32.705 100.313 28.2291 99.0122C23.8254 97.639 23.5366 97.4946 22.4538 96.6273C21.2988 95.76 20.5767 95.6155 20.4324 96.555C20.2881 97.4945 20.7934 98.5786 22.7426 99.8073C24.6918 101.036 25.9911 100.819 26.7853 101.325C27.5071 101.831 27.3628 103.132 25.9189 103.204C24.5473 103.276 21.2266 103.276 19.9992 100.819C18.7721 98.3619 16.6785 96.9887 16.3175 100.241C15.9566 103.493 17.617 104.216 18.8442 105.083C20.0714 105.95 20.6489 106.095 18.2667 107.974C15.8844 109.781 14.6571 112.816 17.0394 113.177C19.4217 113.539 19.8549 112.744 20.6489 112.238C21.5153 111.732 23.2479 110.576 23.4644 112.816C23.6089 114.984 24.4751 117.875 27.2184 117.731C29.9616 117.586 29.7451 116.43 28.3734 114.551C27.0018 112.672 26.9296 110.359 27.4349 109.203C27.9403 108.046 30.3948 105.517 30.034 108.913C29.6008 112.31 29.8173 114.623 30.9001 115.273C32.0553 115.924 32.5606 115.057 32.5606 112.31C32.5606 109.564 33.3546 108.046 34.5098 105.878C35.6648 103.71 37.4697 101.686 39.0578 101.975C40.5738 102.265 42.8117 102.915 42.7395 105.589C42.6673 108.191 40.8625 109.636 39.6353 110.287C38.4082 110.865 36.459 112.455 36.098 113.322C35.737 114.189 36.7476 114.117 37.4697 113.828C38.1915 113.539 39.4188 113.177 38.6968 114.551C37.975 115.924 36.2423 117.369 36.892 118.598C37.614 119.826 39.2021 119.61 39.8518 118.67C40.4295 117.731 40.9348 116.285 41.5123 115.851C42.0898 115.418 42.523 115.129 42.523 116.719C42.5952 118.236 42.7395 118.381 43.1005 118.742C43.4615 119.104 44.9775 119.32 45.0497 117.514C45.1218 115.707 44.7608 113.611 45.2662 111.371C45.7715 109.13 46.4935 106.384 49.1645 106.673C51.8357 106.962 53.2074 108.263 53.0629 109.853C52.8464 111.443 51.2582 112.166 49.6698 112.599C48.0095 113.033 46.71 114.262 48.2984 114.912C49.8144 115.562 51.1137 115.635 50.825 116.502C50.5362 117.369 48.0095 118.815 48.0095 120.116C48.0817 121.416 48.7313 121.705 48.587 123.079C48.3705 124.452 48.226 124.596 49.0924 125.391C49.9587 126.186 50.825 125.464 51.4747 124.741C52.1244 124.018 53.0629 124.018 53.6404 123.368C54.218 122.717 54.651 122.139 55.012 120.838C55.3009 119.465 54.9399 118.236 56.1672 119.031C57.3944 119.754 58.4051 121.85 59.1271 121.416C59.8489 120.983 61.2927 120.477 59.7046 118.164C58.044 115.851 57.8997 115.707 58.8382 114.623C59.7046 113.611 61.9424 113.25 63.3141 114.045C64.6857 114.84 66.4182 116.502 65.6964 117.947C64.9744 119.465 61.8702 122.284 59.9211 123.223C57.9719 124.163 57.3222 124.885 56.8169 125.897C56.2394 126.909 57.3944 127.704 58.2607 127.054C59.1271 126.403 61.2927 125.247 60.7152 126.981C60.1377 128.643 59.4879 130.595 59.7046 131.534C59.9211 132.402 61.3649 132.763 62.3034 131.318C63.3141 129.872 64.1082 127.849 64.6857 130.089C65.2632 132.402 66.3461 130.306 66.7071 129.222C67.0681 128.21 66.6349 126.837 66.6349 125.608C66.5628 124.38 67.2846 121.272 69.0894 120.621C70.8941 119.899 71.5439 119.537 73.421 121.489C75.2256 123.44 74.5038 125.897 73.421 127.776C72.3379 129.583 70.6054 131.534 69.0173 132.329C67.5013 133.197 66.2017 133.413 66.2017 134.353C66.1296 135.22 67.0681 136.449 68.3674 136.015C69.5948 135.582 71.6883 134.425 72.6268 133.124C73.5653 131.824 75.8755 130.233 74.5038 133.847C73.1321 137.461 71.3994 137.605 70.1723 137.75C68.9451 137.822 65.6964 137.171 66.1296 139.051C66.5628 140.857 67.4289 141.291 68.8728 141.941C70.3166 142.592 70.2444 142.447 71.9048 141.508C73.5653 140.64 74.6481 139.629 74.7203 142.231C74.7924 144.832 75.2978 146.35 75.9476 146.711C76.453 146.928 76.8861 147 77.1748 147C77.3191 147 77.8968 147 78.4743 146.711C79.1961 146.35 79.7015 144.832 79.7015 142.231C79.7736 139.629 80.8566 140.64 82.517 141.508C84.1773 142.375 84.1051 142.52 85.549 141.941C86.9928 141.291 87.8592 140.93 88.2923 139.051C88.7255 137.244 85.4768 137.822 84.2497 137.75C83.0223 137.678 81.2898 137.461 79.9181 133.847C78.5465 130.233 80.8566 131.824 81.7951 133.124C82.7337 134.425 84.8272 135.582 86.0543 136.015C87.2817 136.449 88.2202 135.293 88.2202 134.353C88.1478 133.486 86.9207 133.197 85.4047 132.329C83.8886 131.462 82.156 129.583 81.001 127.776C79.9181 125.97 79.1961 123.44 81.001 121.489C82.8058 119.537 83.5276 119.971 85.3325 120.621C87.1372 121.344 87.787 124.38 87.787 125.608C87.7148 126.837 87.3538 128.21 87.7148 129.222C88.0757 130.233 89.2308 132.329 89.7362 130.089C90.3137 127.776 91.1077 129.872 92.1185 131.318C93.1292 132.763 94.5007 132.474 94.7174 131.534C94.9339 130.667 94.2842 128.716 93.7067 126.981C93.1292 125.319 95.2227 126.403 96.1612 127.054C97.0275 127.704 98.1825 126.909 97.605 125.897C97.0275 124.885 96.3777 124.163 94.5007 123.223C92.5515 122.284 89.5195 119.465 88.7255 117.947C88.0035 116.43 89.7362 114.84 91.1077 114.045C92.4793 113.25 94.7174 113.539 95.5837 114.623C96.4499 115.635 96.3055 115.851 94.7174 118.164C93.0568 120.477 94.5007 120.983 95.2949 121.416C96.0167 121.85 97.0997 119.754 98.2547 119.031C99.4819 118.309 99.121 119.537 99.4097 120.838C99.6985 122.211 100.204 122.717 100.781 123.368C101.359 124.018 102.297 124.018 102.947 124.741C103.597 125.464 104.463 126.186 105.329 125.391C106.196 124.596 106.051 124.524 105.835 123.079C105.618 121.705 106.34 121.416 106.412 120.116C106.485 118.815 103.958 117.369 103.597 116.502C103.308 115.635 104.608 115.562 106.124 114.912C107.64 114.262 106.34 112.961 104.752 112.599C103.092 112.166 101.503 111.443 101.359 109.853C101.142 108.263 102.586 106.962 105.257 106.673C107.928 106.384 108.65 109.13 109.156 111.371C109.661 113.611 109.3 115.779 109.372 117.514C109.444 119.32 110.96 119.176 111.321 118.742C111.682 118.309 111.899 118.236 111.899 116.719C111.971 115.201 112.332 115.49 112.91 115.851C113.487 116.285 113.992 117.658 114.57 118.67C115.147 119.61 116.808 119.899 117.53 118.598C118.252 117.369 116.519 115.851 115.725 114.551C115.003 113.177 116.23 113.539 116.952 113.828C117.674 114.117 118.613 114.189 118.324 113.322C117.963 112.455 116.014 110.865 114.787 110.287C113.559 109.708 111.682 108.263 111.682 105.589C111.61 102.987 113.848 102.337 115.364 101.975C116.88 101.686 118.757 103.71 119.912 105.878C121.067 108.046 121.861 109.564 121.861 112.31C121.861 115.057 122.367 115.924 123.522 115.273C124.677 114.623 124.821 112.31 124.388 108.913C123.955 105.517 126.481 108.046 126.987 109.203C127.492 110.431 127.42 112.672 126.048 114.551C124.677 116.43 124.46 117.586 127.203 117.731C129.947 117.875 130.813 114.984 130.957 112.816C131.102 110.648 132.906 111.804 133.773 112.238C134.639 112.744 135 113.539 137.382 113.177C139.765 112.816 138.538 109.853 136.155 107.974C133.773 106.167 134.35 105.95 135.578 105.083C136.011 104.216 137.599 103.493 137.238 100.241ZM66.2017 108.335C65.5521 109.997 63.9637 109.925 62.9531 109.997C61.9424 110.07 59.3436 110.648 59.3436 110.648C59.3436 110.648 58.1162 111.226 57.1055 111.443C56.0949 111.66 56.1672 110.287 55.9505 109.492C55.734 108.769 54.8677 107.179 54.4345 106.167C54.0014 105.155 52.4132 104.071 54.7955 101.036C57.1779 98.0004 56.3115 101.759 56.1672 102.553C56.0227 103.349 56.0949 104.36 57.3944 105.155C58.6217 105.95 59.0547 104.433 60.6431 101.542C62.3034 98.7233 63.3141 100.024 63.1697 101.108C63.0254 102.265 62.7366 103.276 62.0869 104.505C61.4371 105.734 60.4986 106.673 61.0762 107.323C61.6537 107.974 63.1697 107.829 65.1189 106.312C67.0681 104.722 66.8514 106.673 66.2017 108.335ZM75.2256 108.263C75.731 106.89 75.8755 106.601 76.7416 106.384C77.6801 106.528 77.7523 106.89 78.2576 108.263C78.8353 109.708 79.124 112.021 78.2576 114.189C77.7523 115.346 77.1748 115.707 76.7416 115.779C76.3085 115.707 75.6588 115.418 75.1535 114.189C74.3593 111.949 74.7203 109.708 75.2256 108.263ZM82.2281 102.843C80.7845 105.155 79.124 103.782 78.33 102.987C77.8968 102.554 77.3193 102.409 76.8861 102.337C76.453 102.409 75.8755 102.554 75.4423 102.987C74.576 103.782 72.9878 105.155 71.5439 102.843C70.1001 100.53 70.5333 98.7233 71.7604 99.8073C72.9878 100.891 73.7096 102.409 74.7924 101.325C75.8755 100.241 75.3701 99.1567 76.7416 99.1567C76.8138 99.1567 76.8861 99.1567 76.9583 99.1567C77.0305 99.1567 77.1026 99.1567 77.247 99.1567C78.6186 99.2292 78.1133 100.241 79.1961 101.325C80.2791 102.409 81.001 100.891 82.2281 99.8073C83.1666 98.7233 83.5998 100.53 82.2281 102.843ZM99.121 106.095C98.6879 107.179 97.8215 108.769 97.605 109.419C97.3884 110.214 97.4605 111.588 96.4499 111.371C95.4392 111.154 94.212 110.576 94.212 110.576C94.212 110.576 91.6132 109.997 90.6023 109.925C89.5917 109.853 88.0035 109.997 87.3538 108.263C86.7042 106.601 86.4875 104.65 88.4367 106.239C90.3858 107.757 91.9018 107.902 92.4793 107.251C93.0568 106.601 92.0462 105.589 91.4687 104.433C90.819 103.204 90.5302 102.192 90.3858 101.036C90.2415 99.8795 91.2522 98.5786 92.9125 101.469C94.573 104.288 94.9339 105.878 96.1612 105.083C97.3884 104.288 97.5329 103.276 97.3884 102.481C97.244 101.686 96.3777 97.9282 98.76 100.964C101.142 103.999 99.482 105.083 99.121 106.095Z" fill="#121212"/>
</g>
<defs>
<clipPath id="clip0_8_84">
<rect width="154" height="147" fill="white"/>
</clipPath>
</defs>
</svg>
